<?xml version="1.0" standalone="no"?>
<!DOCTYPE svg PUBLIC "-//W3C//DTD SVG 20010904//EN"
 "http://www.w3.org/TR/2001/REC-SVG-20010904/DTD/svg10.dtd">
<svg version="1.0" xmlns="http://www.w3.org/2000/svg"
 width="300.000000pt" height="300.000000pt" viewBox="0 0 300.000000 300.000000"
 preserveAspectRatio="xMidYMid meet">
<metadata>
Created by potrace 1.11, written by Peter Selinger 2001-2013
</metadata>
<g transform="translate(0.000000,300.000000) scale(0.100000,-0.100000)"
fill="#000000" stroke="none">
<path d="M1291 2975 c-433 -68 -804 -301 -1036 -651 -291 -441 -330 -978 -105
-1459 94 -201 290 -435 476 -567 664 -473 1583 -333 2074 315 137 180 227 379
277 617 25 121 25 430 -1 550 -122 565 -517 995 -1057 1149 -208 59 -435 76
-628 46z m431 -552 c18 -16 113 -102 212 -193 98 -91 193 -177 211 -192 18
-15 37 -40 44 -55 8 -21 11 -208 9 -700 l-3 -673 -28 -27 -27 -28 -613 -3
c-336 -2 -627 0 -646 3 -18 4 -44 17 -57 30 l-24 24 0 891 0 892 29 29 29 29
415 0 415 0 34 -27z"/>
<path d="M927 2323 c-4 -3 -7 -375 -7 -825 l0 -818 575 0 575 0 0 580 0 580
-212 0 c-309 0 -301 -8 -308 285 l-5 200 -306 3 c-168 1 -308 -1 -312 -5z
m243 -743 c45 -45 13 -130 -49 -130 -44 0 -62 10 -76 44 -14 34 -5 73 22 94
26 19 80 15 103 -8z m780 -55 l0 -65 -345 0 -345 0 0 65 0 65 345 0 345 0 0
-65z m-780 -205 c45 -45 13 -130 -49 -130 -44 0 -62 10 -76 44 -14 34 -5 73
22 94 26 19 80 15 103 -8z m780 -55 l0 -65 -345 0 -345 0 0 65 0 65 345 0 345
0 0 -65z m-783 -207 c42 -39 27 -108 -27 -127 -63 -21 -106 17 -101 92 3 52
85 75 128 35z m783 -53 l0 -65 -345 0 -345 0 0 65 0 65 345 0 345 0 0 -65z"/>
<path d="M1682 2104 l3 -139 143 -3 c78 -1 142 1 142 6 0 8 -228 226 -273 261
-17 13 -17 7 -15 -125z"/>
</g>
</svg>
